<mxfile host="app.diagrams.net" agent="Mozilla/5.0 (Windows NT 10.0; Win64; x64) AppleWebKit/537.36 (KHTML, like Gecko) Chrome/129.0.0.0 Safari/537.36" version="24.7.7">
  <diagram name="Страница — 1" id="J1I5dP9jmFQ0PVLUAaVg">
    <mxGraphModel dx="2074" dy="1132" grid="1" gridSize="10" guides="1" tooltips="1" connect="1" arrows="1" fold="1" page="1" pageScale="1" pageWidth="827" pageHeight="1169" math="0" shadow="0">
      <root>
        <mxCell id="0" />
        <mxCell id="1" parent="0" />
        <mxCell id="T1r_JRhgGzbWIaPDUHX3-1" value="" style="rounded=0;whiteSpace=wrap;html=1;" vertex="1" parent="1">
          <mxGeometry x="40" y="30" width="760" height="180" as="geometry" />
        </mxCell>
        <mxCell id="T1r_JRhgGzbWIaPDUHX3-2" value="" style="rounded=0;whiteSpace=wrap;html=1;" vertex="1" parent="1">
          <mxGeometry x="40" y="230" width="120" height="410" as="geometry" />
        </mxCell>
        <mxCell id="T1r_JRhgGzbWIaPDUHX3-3" value="" style="rounded=0;whiteSpace=wrap;html=1;rotation=90;" vertex="1" parent="1">
          <mxGeometry x="165" y="255" width="170" height="120" as="geometry" />
        </mxCell>
        <mxCell id="T1r_JRhgGzbWIaPDUHX3-5" value="" style="rounded=0;whiteSpace=wrap;html=1;rotation=90;" vertex="1" parent="1">
          <mxGeometry x="320" y="255" width="170" height="120" as="geometry" />
        </mxCell>
        <mxCell id="T1r_JRhgGzbWIaPDUHX3-6" value="" style="rounded=0;whiteSpace=wrap;html=1;rotation=90;" vertex="1" parent="1">
          <mxGeometry x="470" y="255" width="170" height="120" as="geometry" />
        </mxCell>
        <mxCell id="T1r_JRhgGzbWIaPDUHX3-7" value="" style="rounded=0;whiteSpace=wrap;html=1;rotation=90;" vertex="1" parent="1">
          <mxGeometry x="640" y="255" width="170" height="120" as="geometry" />
        </mxCell>
        <mxCell id="T1r_JRhgGzbWIaPDUHX3-8" value="" style="rounded=0;whiteSpace=wrap;html=1;rotation=90;" vertex="1" parent="1">
          <mxGeometry x="160" y="440" width="170" height="120" as="geometry" />
        </mxCell>
        <mxCell id="T1r_JRhgGzbWIaPDUHX3-9" value="" style="rounded=0;whiteSpace=wrap;html=1;rotation=90;" vertex="1" parent="1">
          <mxGeometry x="315" y="440" width="170" height="120" as="geometry" />
        </mxCell>
        <mxCell id="T1r_JRhgGzbWIaPDUHX3-10" value="" style="rounded=0;whiteSpace=wrap;html=1;rotation=90;" vertex="1" parent="1">
          <mxGeometry x="465" y="440" width="170" height="120" as="geometry" />
        </mxCell>
        <mxCell id="T1r_JRhgGzbWIaPDUHX3-11" value="" style="rounded=0;whiteSpace=wrap;html=1;rotation=90;" vertex="1" parent="1">
          <mxGeometry x="635" y="440" width="170" height="120" as="geometry" />
        </mxCell>
        <mxCell id="T1r_JRhgGzbWIaPDUHX3-13" value="" style="rounded=0;whiteSpace=wrap;html=1;" vertex="1" parent="1">
          <mxGeometry x="40" y="680" width="740" height="60" as="geometry" />
        </mxCell>
      </root>
    </mxGraphModel>
  </diagram>
</mxfile>
